<svg aria-hidden="true" style="width:0;height:0;position:absolute;overflow:hidden" xmlns="http://www.w3.org/2000/svg"><defs><symbol id="icon-burger" viewBox="0 0 46 32"><path stroke-width="2.286" d="M0 2.286h45.714M0 16h45.714M0 29.714h45.714"/></symbol><symbol id="icon-close-btn" viewBox="0 0 32 32"><path stroke-width="2" d="m2.52 2 26.96 28M2 29.48 30 2.52"/></symbol><symbol id="icon-dots" viewBox="0 0 139 32"><path d="M85.333 16c0 8.837-7.163 16-16 16s-16-7.163-16-16 7.163-16 16-16 16 7.163 16 16zM32 16c0 8.837-7.163 16-16 16S0 24.837 0 16 7.163 0 16 0s16 7.163 16 16zM138.667 16c0 8.837-7.163 16-16 16s-16-7.163-16-16 7.163-16 16-16 16 7.163 16 16z"/></symbol><symbol id="icon-dots-slider" viewBox="0 0 256 32"><path d="M144 16c0 8.837-7.163 16-16 16s-16-7.163-16-16 7.163-16 16-16 16 7.163 16 16zM32 16c0 8.837-7.163 16-16 16S0 24.837 0 16 7.163 0 16 0s16 7.163 16 16zM256 16c0 8.837-7.163 16-16 16s-16-7.163-16-16 7.163-16 16-16 16 7.163 16 16z"/></symbol><symbol id="icon-facebook" viewBox="0 0 32 32"><path d="M16 32c8.837 0 16-7.163 16-16S24.837 0 16 0 0 7.163 0 16s7.163 16 16 16z"/><path class="icon__letter" fill="#fff" d="M20.446 15.981h-2.611V25.6H13.88v-9.619H12v-3.379h1.88v-2.187c0-1.564.739-4.014 3.991-4.014l2.929.012v3.281h-2.125c-.348 0-.839.176-.839.922v1.989h2.955l-.345 3.377z"/></symbol><symbol id="icon-github" viewBox="0 0 32 32"><path d="M32 16c0 8.837-7.163 16-16 16S0 24.837 0 16 7.163 0 16 0s16 7.163 16 16z"/><path class="icon__letter" fill="#fff" d="M16 6.588c-5.17 0-9.412 4.242-9.412 9.412 0 4.411 3.096 8.419 7.206 9.412v-3.113a2.314 2.314 0 0 1-1.196-.031c-.556-.164-1.008-.535-1.344-1.099-.214-.36-.593-.753-.988-.724l-.097-1.098c.856-.073 1.594.521 2.033 1.258.196.328.421.52.709.605.278.083.577.043.925-.08.088-.697.408-.958.649-1.327-2.452-.365-3.429-1.666-3.816-2.692-.514-1.364-.238-3.066.67-4.143.018-.021.05-.075.038-.113-.417-1.259.09-2.3.109-2.41.481.141.559-.143 2.089.786l.264.159c.111.066.075.028.186.019a7.787 7.787 0 0 1 1.97-.276h.006a8.021 8.021 0 0 1 2.002.284l.086.009c-.008-.002.024-.006.075-.037 1.911-1.158 1.842-.779 2.355-.946.019.111.519 1.169.106 2.411-.056.171 1.656 1.739.708 4.256-.388 1.026-1.365 2.328-3.816 2.693.314.48.692.734.69 1.722v3.886c4.109-.993 7.206-5 7.206-9.412 0-5.17-4.242-9.412-9.412-9.412z"/></symbol><symbol id="icon-home-dots" viewBox="0 0 195 32"><path d="M0 0h194.667v32H0z"/><path d="M-1608-10432h3413.333V3381.333H-1608z"/><path d="M114.667 16c0 8.837-7.163 16-16 16s-16-7.163-16-16 7.163-16 16-16 16 7.163 16 16zM34.253 15.613a1.571 1.571 0 0 0-.129-2.254l-.002-.002L19.349.432A1.828 1.828 0 0 0 18.165 0c-.467 0-.893.174-1.217.46l.002-.002L2.129 14.047a1.564 1.564 0 0 0-.071 2.251l.373.387c.613.64 1.611.72 2.224.171l1.107-.992v14.523c0 .893.72 1.613 1.613 1.613h5.773c.891 0 1.613-.72 1.613-1.613v-10.16h7.373v10.16c-.013.891.624 1.613 1.515 1.613h6.123a1.61 1.61 0 0 0 1.611-1.613v-14.32l.685.603c.376.331 1.168.064 1.765-.595l.421-.461zM194.667 16c0 8.837-7.163 16-16 16s-16-7.163-16-16 7.163-16 16-16 16 7.163 16 16z"/></symbol><symbol id="icon-telegram" viewBox="0 0 32 32"><path d="M32 16c0 8.837-7.163 16-16 16S0 24.837 0 16 7.163 0 16 0s16 7.163 16 16z"/><path class="icon__letter" fill="#fff" d="m12.867 18.376-.317 4.169c.455 0 .651-.183.888-.401l2.13-1.901 4.414 3.018c.809.421 1.381.199 1.6-.696l2.897-12.673c.258-1.117-.433-1.554-1.221-1.28L6.226 14.698c-1.162.422-1.145 1.026-.198 1.301l4.355 1.264 10.114-5.907c.476-.295.909-.132.553.163l-8.182 6.856z"/></symbol><symbol id="burger" viewBox="0 0 32 32"><path d="M6.4 11.734V9.6h19.2v2.134H6.4zm0 5.332h19.2v-2.133H6.4v2.133zm0 5.334h19.2v-2.134H6.4V22.4z"/></symbol><symbol id="cross" viewBox="0 0 32 32"><path d="M23.734 10.304 22.23 8.8l-5.963 5.962L10.305 8.8l-1.504 1.504 5.962 5.962-5.962 5.963 1.504 1.504 5.962-5.963 5.963 5.963 1.504-1.504-5.963-5.963 5.963-5.962z"/></symbol><symbol id="close" viewBox="0 0 32 32"><path d="M32 3.223 28.777 0 16 12.777 3.223 0 0 3.223 12.777 16 0 28.777 3.223 32 16 19.223 28.777 32 32 28.777 19.223 16 32 3.223z"/></symbol><symbol id="email" viewBox="0 0 32 32"><path d="M26.667 5.333H5.334A2.662 2.662 0 0 0 2.682 8l-.014 16c0 1.467 1.2 2.667 2.667 2.667h21.333c1.467 0 2.667-1.2 2.667-2.667V8c0-1.467-1.2-2.667-2.667-2.667zm-.534 5.668-9.426 5.892a1.343 1.343 0 0 1-1.421-.004l.006.003L5.866 11A1.133 1.133 0 1 1 7.07 9.083l-.004-.003 8.933 5.586 8.933-5.588a1.132 1.132 0 1 1 1.204 1.916l-.005.003z"/></symbol><symbol id="person" viewBox="0 0 32 32"><path d="M16 16a5.333 5.333 0 1 0 0-10.666A5.333 5.333 0 1 0 16 16zm0 2.667c-3.561 0-10.667 1.787-10.667 5.333v1.333c0 .732.599 1.333 1.333 1.333h18.667c.732 0 1.333-.601 1.333-1.333V24c0-3.547-7.108-5.333-10.667-5.333z"/></symbol><symbol id="phone" viewBox="0 0 32 32"><path d="m24.882 19.774-3.268-.373a2.552 2.552 0 0 0-2.11.732l-2.368 2.368c-3.669-1.894-6.585-4.81-8.427-8.372l-.051-.108 2.382-2.377a2.552 2.552 0 0 0 .731-2.122l.001.012-.373-3.243a2.578 2.578 0 0 0-2.557-2.276H6.613c-1.454 0-2.663 1.209-2.574 2.661.683 10.987 9.47 19.762 20.444 20.444 1.452.089 2.663-1.12 2.663-2.574v-2.238a2.549 2.549 0 0 0-2.253-2.532l-.012-.001z"/></symbol><symbol id="check" viewBox="0 0 15 15"><path d="m2.957 7.752-.069-.066-.069.065-.888.842-.076.072.076.073 3.496 3.334.069.066.069-.066 7.504-7.158.076-.073-.076-.072-.882-.841-.069-.066-.069.066-6.553 6.246-2.539-2.422Z" stroke-width=".2"/></symbol><symbol id="marks" viewBox="0 0 43 32"><path d="M32.014 0c1.928 0 3.75.52 5.464 1.561s3.107 2.537 4.178 4.488c1.029 1.951 1.543 4.25 1.543 6.894s-.643 5.225-1.928 7.74c-.429.91-1.2 2.081-2.315 3.512a63.65 63.65 0 0 1-3.214 3.707L31.692 32l-2.893-4.813a22.225 22.225 0 0 0 5.306-4.646l.03-.037c1.542-1.821 2.314-3.49 2.314-5.008 0-.781-.171-1.41-.514-1.886a8.361 8.361 0 0 1-5.014 1.626c-1.328 0-2.593-.412-3.793-1.236a8.638 8.638 0 0 1-2.935-3.078l-.022-.043c-.771-1.258-1.157-2.558-1.157-3.902 0-1.518.45-2.97 1.35-4.358a10.313 10.313 0 0 1 3.364-3.356l.044-.025C29.142.414 30.556.002 32.014.002zM8.936 0c1.928 0 3.75.52 5.464 1.561s3.107 2.536 4.178 4.488c1.029 1.951 1.543 4.25 1.543 6.894 0 1.864-.236 3.534-.707 5.008-.472 1.518-1.286 3.1-2.443 4.748-1.114 1.561-2.164 2.862-3.15 3.902-.986 1.084-2.7 2.883-5.143 5.398l-2.893-4.813a22.225 22.225 0 0 0 5.306-4.646l.03-.037c1.542-1.821 2.314-3.49 2.314-5.008 0-.781-.172-1.41-.514-1.886a8.361 8.361 0 0 1-5.014 1.626c-1.328 0-2.593-.412-3.793-1.236a8.638 8.638 0 0 1-2.935-3.078l-.022-.043C.386 11.62 0 10.32 0 8.976c0-1.518.429-2.97 1.286-4.358A10.313 10.313 0 0 1 4.65 1.262l.045-.025C6.065.413 7.479.001 8.937.001z"/></symbol></defs></svg>